<svg xmlns="http://www.w3.org/2000/svg" viewBox="0 0 50 35" fill="#fff"><path d="M21.5 23.5h-3.2l2-12.3h3.2l-2 12.3zm-5.1 0h-3l-2.8-9.8-.3 1.5-.9 4.7-.1.6c-.5 1.3-.1 2.1.8 2.5.4.2.9.3 1.5.4l-.3 1.8h-5.4l.3-1.8c1.7-.2 2.7-.7 3.2-2.2l3.9-12.1h3.4l5.2 14.4h-3.5l-.5-1.5h-4.1l-.4 1.5zm20.9-12.3l-2.5 8.5-.3-1.4-1.5-6.3c-.3-1.1-1-1.5-2.1-1.5h-4.1l-.1.5c1.9.5 3.5 1.3 4.8 2.4l3.2 10.1h3.4l5.1-12.3h-3.4l-2.5 0zm7.7 0c-.9 0-1.6.5-1.9 1.3l-4.8 11h3.2l.6-1.7h3.9l.4 1.7h2.8l-2.5-12.3h-1.7zm.6 3.2l.9 4.6h-2.5l1.6-4.6z"/></svg>