<svg xmlns="http://www.w3.org/2000/svg" viewBox="0 0 50 35" fill="#fff"><path d="M23.8 17.5v4.2h-1.3v-10.4h3.5c.8 0 1.6.3 2.2.8.6.5 1 1.3 1 2.1 0 .8-.4 1.6-1 2.1-.6.5-1.4.8-2.2.8h-2.2v.4zm0-4.9v3.2h2.3c.5 0 .9-.2 1.2-.5.7-.6.7-1.6.1-2.2-.3-.3-.7-.5-1.2-.5h-2.4zm8.5 1.9c1 0 1.7.3 2.3.8.6.5.9 1.2.9 2.1v4.3h-1.2v-1h0c-.5.8-1.3 1.2-2.2 1.2-.8 0-1.4-.2-2-.7-.5-.4-.8-1-.8-1.7 0-.7.3-1.3.8-1.7.6-.4 1.3-.6 2.1-.6.7 0 1.3.1 1.8.4v-.3c0-.5-.2-1-.6-1.3-.4-.3-.8-.5-1.3-.5-.8 0-1.4.3-1.8 1l-1.1-.7c.6-.9 1.5-1.3 2.7-1.3h.4zm-1.8 5.2c0 .4.2.7.5.9.3.2.7.4 1.1.4.6 0 1.1-.2 1.5-.6.4-.4.7-.9.7-1.4-.4-.3-.9-.4-1.6-.4-.5 0-1 .1-1.3.3-.6.3-.9.5-.9.8zm10.3-5l-4.2 9.7h-1.3l1.6-3.4-2.8-6.3h1.4l2 4.7h0l1.9-4.7h1.4z"/><path d="M17.8 17.5c0-.4 0-.8-.1-1.2h-5.5v2.3h3.2c-.1.7-.5 1.4-1.1 1.8v1.5h1.8c1.1-1 1.7-2.4 1.7-4.4z" fill="#4285f4"/><path d="M12.2 22.5c1.5 0 2.7-.5 3.6-1.4l-1.8-1.4c-.5.3-1.1.5-1.8.5-1.4 0-2.6-.9-3-2.2h-1.8v1.4c.9 1.9 2.8 3.1 4.8 3.1z" fill="#34a853"/><path d="M9.2 18c-.2-.5-.3-1-.3-1.5s.1-1 .3-1.5v-1.5h-1.8c-.5 1-.8 2.1-.8 3.3 0 1.1.3 2.2.8 3.2l1.8-2z" fill="#fbbc04"/><path d="M12.2 12.8c.8 0 1.5.3 2 .8l1.5-1.5c-.9-.9-2.1-1.4-3.5-1.4-2 0-3.9 1.2-4.8 3.1l1.8 1.4c.4-1.3 1.6-2.4 3-2.4z" fill="#ea4335"/></svg>