<svg xmlns="http://www.w3.org/2000/svg" viewBox="0 0 50 35" fill="#fff"><path d="M12.5 13.5c-.6.7-1.5 1.2-2.4 1.1-.1-.9.3-1.9.9-2.5.6-.7 1.6-1.2 2.3-1.2.1 1-.3 1.9-.8 2.6zm.8 1.3c-1.3-.1-2.5.7-3.1.7-.6 0-1.6-.7-2.7-.7-1.4 0-2.7.8-3.4 2-.7 1.3-.6 3.7.6 5.8.8 1.4 1.7 2.9 3 2.9 1.2 0 1.6-.8 3-.8s1.8.8 3 .8 2.1-1.4 2.9-2.8c.5-.9.9-1.8 1.1-2.1-.1 0-2.1-.8-2.1-3.1 0-2 1.6-2.9 1.7-3-1-1.5-2.5-1.6-3-1.7zm11.4-2.6v13h2.1v-4.4h2.9c2.6 0 4.5-1.8 4.5-4.3s-1.8-4.3-4.4-4.3h-5.1zm2.1 1.8h2.4c1.8 0 2.8 1 2.8 2.5s-1 2.5-2.8 2.5h-2.4v-5zm12.5 11.4c1.3 0 2.6-.7 3.1-1.8h0v1.7h2v-6.5c0-2-1.6-3.3-4-3.3-2.3 0-4 1.3-4 3.2h1.9c.2-.9.9-1.5 2-1.5 1.3 0 2 .6 2 1.7v.7l-2.6.2c-2.5.1-3.8 1.2-3.8 2.9 0 1.8 1.3 2.9 3.4 2.9zm.6-1.6c-1.1 0-1.8-.5-1.8-1.4 0-.9.7-1.4 2-1.5l2.3-.1v.8c0 1.3-1.1 2.2-2.5 2.2zm7.6 5.3c2 0 3-1 3.9-3.2l3.7-10.4h-2.2l-2.5 7.8h0l-2.5-7.8h-2.2l3.5 9.8-.2.6c-.3 1-.8 1.4-1.7 1.4-.2 0-.5 0-.6 0v1.7c.2 0 .6.1.8.1z"/></svg>